
<svg width="512" height="512" viewBox="0 0 512 512" fill="none" xmlns="http://www.w3.org/2000/svg">
<rect width="512" height="512" rx="109" fill="url(#paint0_linear_302_2)"/>
<path d="M333.855 202.407C338.079 201.275 341.814 198.785 344.485 195.321C347.154 191.857 348.61 187.611 348.629 183.237V183.185C348.629 177.929 346.541 172.888 342.824 169.171C339.107 165.454 334.066 163.366 328.81 163.366H328.759C324.386 163.385 320.141 164.842 316.678 167.512C313.214 170.182 310.724 173.917 309.593 178.141C306.355 189.869 299.359 200.211 289.679 207.582C279.998 214.952 268.167 218.943 256 218.943C243.834 218.943 232.003 214.952 222.322 207.582C212.641 200.211 205.646 189.869 202.408 178.141C201.275 173.917 198.785 170.183 195.322 167.514C191.858 164.844 187.612 163.388 183.239 163.37H183.187C177.931 163.37 172.89 165.458 169.173 169.174C165.457 172.891 163.369 177.932 163.369 183.189V183.241C163.388 187.614 164.845 191.859 167.515 195.322C170.184 198.786 173.919 201.275 178.143 202.407C189.871 205.645 200.213 212.641 207.583 222.322C214.954 232.002 218.945 243.833 218.945 256C218.945 268.167 214.954 279.998 207.583 289.679C200.213 299.36 189.871 306.356 178.143 309.593C173.919 310.726 170.185 313.215 167.515 316.678C164.846 320.142 163.389 324.387 163.37 328.759V328.811C163.37 334.068 165.458 339.108 169.175 342.826C172.891 346.542 177.932 348.63 183.189 348.63H183.241C187.614 348.611 191.859 347.154 195.322 344.484C198.786 341.814 201.275 338.08 202.407 333.856C205.645 322.128 212.64 311.785 222.321 304.415C232.002 297.044 243.833 293.053 255.999 293.053C268.166 293.053 279.997 297.044 289.678 304.415C299.358 311.785 306.354 322.128 309.592 333.856C310.723 338.08 313.213 341.815 316.677 344.485C320.14 347.155 324.386 348.612 328.759 348.631H328.811C334.067 348.631 339.108 346.542 342.825 342.826C346.541 339.109 348.63 334.068 348.63 328.812V328.759C348.611 324.386 347.154 320.14 344.485 316.677C341.814 313.214 338.08 310.725 333.856 309.592C322.128 306.355 311.786 299.359 304.416 289.678C297.045 279.997 293.054 268.166 293.054 255.999C293.054 243.832 297.045 232.001 304.416 222.32C311.786 212.64 322.127 205.645 333.855 202.407Z" fill="white"/>
<path d="M159.053 144.858C159.691 145.492 160.51 145.912 161.397 146.059C162.284 146.206 163.195 146.073 164.003 145.678C171.373 142.118 179.667 140.933 187.74 142.284C195.812 143.636 203.267 147.459 209.076 153.226C209.877 154.033 210.959 154.498 212.096 154.524C213.232 154.55 214.334 154.135 215.171 153.365C215.587 152.968 215.919 152.492 216.148 151.965C216.378 151.438 216.499 150.871 216.506 150.296C216.513 149.721 216.404 149.151 216.187 148.618C215.971 148.086 215.65 147.603 215.243 147.196C208.159 140.13 199.052 135.443 189.184 133.786C179.317 132.13 169.178 133.585 160.175 137.951C159.563 138.255 159.031 138.7 158.625 139.251C158.218 139.801 157.949 140.441 157.839 141.116C157.73 141.791 157.782 142.483 157.994 143.134C158.205 143.785 158.568 144.376 159.053 144.858Z" fill="white"/>
<path d="M137.966 160.142C133.606 169.116 132.138 179.222 133.765 189.066C135.392 198.91 140.034 208.006 147.05 215.1C147.788 215.875 148.781 216.357 149.847 216.456C150.913 216.556 151.978 216.266 152.847 215.64C153.339 215.269 153.745 214.796 154.039 214.253C154.333 213.711 154.507 213.112 154.549 212.497C154.592 211.882 154.502 211.265 154.286 210.687C154.069 210.11 153.732 209.585 153.296 209.149C147.499 203.339 143.654 195.87 142.291 187.777C140.929 179.683 142.117 171.367 145.691 163.979C146.089 163.17 146.224 162.258 146.079 161.368C145.933 160.479 145.513 159.657 144.878 159.017C144.396 158.532 143.804 158.168 143.153 157.957C142.501 157.746 141.809 157.693 141.133 157.803C140.457 157.913 139.818 158.182 139.267 158.589C138.716 158.996 138.27 159.528 137.966 160.142Z" fill="white"/>
<path d="M348.004 366.323C340.631 369.883 332.336 371.069 324.26 369.714C316.186 368.361 308.729 364.534 302.921 358.764C302.121 357.962 301.043 357.498 299.911 357.473C298.777 357.446 297.679 357.86 296.845 358.626C296.427 359.022 296.093 359.499 295.862 360.026C295.632 360.554 295.509 361.122 295.501 361.698C295.493 362.274 295.602 362.846 295.818 363.379C296.035 363.913 296.357 364.397 296.764 364.804C303.847 371.87 312.955 376.557 322.823 378.214C332.689 379.871 342.828 378.415 351.831 374.05C352.444 373.746 352.976 373.3 353.383 372.749C353.789 372.199 354.057 371.56 354.167 370.884C354.276 370.208 354.223 369.516 354.012 368.866C353.801 368.215 353.437 367.624 352.952 367.142C352.315 366.508 351.495 366.089 350.608 365.942C349.723 365.795 348.812 365.928 348.004 366.323Z" fill="white"/>
<path d="M358.625 296.838C357.859 297.673 357.445 298.771 357.472 299.904C357.497 301.037 357.961 302.116 358.763 302.914C364.538 308.727 368.365 316.19 369.715 324.272C371.066 332.354 369.874 340.655 366.305 348.03C365.909 348.839 365.775 349.75 365.921 350.638C366.068 351.526 366.487 352.346 367.122 352.984C367.604 353.47 368.195 353.833 368.845 354.045C369.495 354.256 370.186 354.309 370.862 354.2C371.536 354.09 372.176 353.823 372.726 353.417C373.277 353.011 373.723 352.48 374.028 351.868C378.406 342.862 379.872 332.716 378.22 322.841C376.567 312.964 371.88 303.848 364.809 296.757C364.402 296.349 363.916 296.027 363.382 295.81C362.848 295.592 362.276 295.483 361.7 295.491C361.123 295.499 360.555 295.622 360.026 295.854C359.498 296.085 359.022 296.419 358.625 296.838Z" fill="white"/>
<path d="M366.313 163.984C369.879 171.358 371.067 179.658 369.715 187.736C368.363 195.815 364.536 203.275 358.763 209.086C357.961 209.885 357.497 210.963 357.472 212.096C357.445 213.228 357.859 214.327 358.625 215.161C359.021 215.579 359.498 215.913 360.025 216.144C360.553 216.375 361.121 216.498 361.697 216.505C362.273 216.513 362.844 216.405 363.378 216.188C363.911 215.972 364.396 215.65 364.803 215.243C371.872 208.156 376.561 199.043 378.215 189.171C379.87 179.298 378.411 169.155 374.039 160.15C373.734 159.538 373.288 159.006 372.737 158.601C372.186 158.195 371.547 157.926 370.872 157.817C370.197 157.707 369.505 157.761 368.855 157.972C368.203 158.183 367.613 158.547 367.131 159.032C366.497 159.67 366.077 160.49 365.93 161.377C365.784 162.265 365.918 163.176 366.313 163.984Z" fill="white"/>
<path d="M302.91 153.236C308.721 147.463 316.18 143.636 324.259 142.284C332.338 140.931 340.637 142.12 348.011 145.686C348.819 146.081 349.731 146.215 350.617 146.069C351.505 145.922 352.325 145.503 352.963 144.869C353.448 144.387 353.812 143.796 354.023 143.145C354.234 142.494 354.288 141.803 354.178 141.127C354.07 140.452 353.801 139.813 353.395 139.262C352.989 138.711 352.457 138.265 351.845 137.961C342.839 133.588 332.697 132.128 322.825 133.783C312.953 135.438 303.84 140.126 296.753 147.196C296.346 147.603 296.024 148.088 295.808 148.621C295.591 149.155 295.482 149.726 295.49 150.302C295.498 150.878 295.621 151.447 295.851 151.974C296.082 152.502 296.416 152.978 296.834 153.374C297.669 154.14 298.767 154.553 299.9 154.528C301.032 154.502 302.11 154.039 302.91 153.236Z" fill="white"/>
<path d="M209.086 358.764C203.275 364.537 195.815 368.364 187.736 369.716C179.658 371.069 171.359 369.88 163.984 366.314C163.176 365.919 162.265 365.785 161.378 365.931C160.49 366.078 159.671 366.498 159.033 367.132C158.547 367.614 158.184 368.205 157.973 368.856C157.761 369.506 157.708 370.198 157.817 370.873C157.926 371.548 158.195 372.188 158.601 372.738C159.007 373.289 159.538 373.736 160.151 374.04C169.156 378.412 179.298 379.872 189.171 378.216C199.043 376.562 208.156 371.874 215.243 364.804C215.65 364.397 215.971 363.912 216.188 363.379C216.405 362.846 216.513 362.274 216.505 361.698C216.497 361.122 216.375 360.554 216.144 360.026C215.913 359.499 215.578 359.022 215.161 358.626C214.326 357.86 213.228 357.446 212.095 357.472C210.963 357.498 209.884 357.961 209.086 358.764Z" fill="white"/>
<path d="M145.687 348.016C142.121 340.642 140.932 332.343 142.284 324.264C143.636 316.185 147.463 308.725 153.236 302.914C154.039 302.115 154.502 301.037 154.527 299.904C154.553 298.771 154.14 297.673 153.374 296.838C152.978 296.42 152.502 296.086 151.974 295.855C151.446 295.625 150.878 295.502 150.302 295.495C149.726 295.487 149.155 295.595 148.621 295.812C148.088 296.029 147.603 296.35 147.196 296.757C140.126 303.844 135.438 312.957 133.783 322.83C132.128 332.702 133.588 342.844 137.961 351.85C138.265 352.463 138.711 352.994 139.262 353.4C139.813 353.806 140.452 354.075 141.127 354.183C141.803 354.293 142.494 354.24 143.145 354.028C143.796 353.817 144.386 353.453 144.868 352.968C145.503 352.33 145.922 351.51 146.069 350.623C146.216 349.736 146.082 348.825 145.687 348.016Z" fill="white"/>
<defs>
<linearGradient id="paint0_linear_302_2" x1="256" y1="0" x2="256" y2="512" gradientUnits="userSpaceOnUse">
<stop stop-color="#545454"/>
<stop offset="1"/>
</linearGradient>
</defs>
</svg>
